<?xml version="1.0" encoding="UTF-8"?>
<svg xmlns="http://www.w3.org/2000/svg" version="1.1" viewBox="0 0 1600 1600">
    <defs>
        <style>
            .cls-1, .cls-2, .cls-3 {
            stroke: #000;
            }

            .cls-1, .cls-4 {
            fill: none;
            }

            .cls-5 {
            fill: #eecabc;
            }

            .cls-2, .cls-6 {
            fill: red;
            }

            .cls-2, .cls-3 {
            stroke-width: 16px;
            }

            .cls-2, .cls-3, .cls-4 {
            stroke-miterlimit: 10;
            }

            .cls-7 {
            fill: #fff;
            }

            .cls-3 {
            opacity: .5;
            }

            .cls-8 {
            display: none;
            }

            .cls-9 {
            fill: #bf0000;
            }

            .cls-4 {
            stroke: red;
            stroke-width: 99px;
            }
        </style>
    </defs>
    <g>
        <g id="hand">
            <g>
                <g id="svg_5" class="cls-8">
                    <rect class="cls-9" x="1158.7" y="1297"/>
                    <rect class="cls-1" x="1158.7" y="1297"/>
                </g>
                <g id="svg_8" class="cls-8">
                    <g id="svg_6">
                        <ellipse class="cls-9" cx="800" cy="1404.9" rx="725.8" ry="174.9"/>
                    </g>
                    <g id="svg_4">
                        <ellipse class="cls-7" cx="800" cy="1404.9" rx="638.7" ry="125.1"/>
                    </g>
                </g>
                <g id="_图层_x5F_1">
                    <g id="svg_1">
                        <path d="M337.1,799.5c-16.4-79.8,78.3-124.5,131.2-70.8,13.4,14.9,125.2,203.5,143.1,234.8,28.3,49.2,67.8,19.4,67.1-8.2-1.5-23.9-87.2-138.7-89.5-164.7-3-45.5-2.2-483.8,3.7-500.2,14.9-39.5,61.9-41,85.7-28.3,35,18.6,28.3,52.2,28.3,98.4,0,84.2.7,168.5.7,252.7s-5.2,103.6,6.7,119.3c8.2,10.4,59.6,38,58.9-42.5v-253.4c0-84.2-2.2-169.2-1.5-253.4.7-41,22.4-63.4,64.9-61.1,42.5,2.2,54.4,31.3,54.4,73.8-.7,167.7,0,335.4,0,503.2s-3.7,41,6.7,55.2c9.7,12.7,29.8,18.6,46.2,6,20.9-16.4,12.7-85.7,12.7-116.3s-3.7-357.1,2.2-374.2c9.7-28.3,47-47,82.7-32.1,36.5,14.9,32.8,49.2,32.8,92.4v377.9c0,38-9.7,93.9,25.3,100.6,50.7,9.7,41-57.4,41-85,.7-83.5,2.2-167,3-250.5,0-29.1,2.2-68.6,44.7-78.3,39.5-9.7,70.1,17.9,73.8,52.2l2.2,505.4c1.5,122.3,3.7,204.2-66.3,309.4-54.4,82-124.5,130.5-231.1,150.6-227.4,43.2-386.1-47-492-245.2-28.3-52.9-52.2-119.3-70.1-182.6-9.7-34.3-17.1-63.4-30.6-95.4-8.2-21.6-34.3-70.8-37.3-89.5h0ZM705.3,201.7c-49.9-26.1-129.7-11.2-162.5,41.7-26.1,41.7-20.1,71.6-20.1,134.9v308.6c-8.2-5.2-13.4-11.9-21.6-17.9-58.1-43.2-133.4-40.3-187.1,7.5-34.3,30.6-44.7,72.3-44.7,117s44.7,114.1,62.6,175.2c47.7,169.2,117,344.4,268.4,445,131.2,87.2,302.6,93.9,450.2,44.7,24.6-8.2,55.2-20.9,75.3-34.3,92.4-59.6,158-150.6,187.8-257.2,7.5-25.3,17.1-66.3,17.1-96.2v-213.2l-3.7-429.4c-9.7-50.7-58.1-101.4-114.8-101.4s-41.7,0-70.8,14.9c0-30.6,2.2-61.1-4.5-86.5-5.2-19.4-12.7-32.1-24.6-45.5-1.5-1.5-4.5-5.2-6-6.7-32.1-31.3-65.6-40.3-111.1-35-18.6,2.2-23.9,7.5-39.5,8.9,0-23.9-2.2-33.5-8.9-49.2-32.8-81.3-150.6-99.9-211.7-30.6-24.6,27.6-29.8,52.9-29.8,104.4h0Z"/>
                    </g>
                    <g id="svg_2">
                        <path class="cls-5"
                              d="M589,790.6c2.2,26.1,88,140.9,89.5,164.7.7,27.6-38.8,57.4-67.1,8.2-17.9-31.3-129.7-219.9-143.1-234.8-52.9-53.7-147.6-8.9-131.2,70.8,3,18.6,29.1,67.8,37.3,89.5,13.4,32.1,20.9,61.1,30.6,95.4,17.9,63.4,41.7,129.7,70.1,182.6,105.9,198.3,264.6,288.5,492,245.2,106.6-20.1,176.7-68.6,231.1-150.6,70.1-105.1,67.8-187.1,66.3-309.4l-2.2-505.4c-3.7-34.3-34.3-61.9-73.8-52.2-42.5,9.7-44.7,49.2-44.7,78.3-.7,83.5-2.2,167-3,250.5,0,27.6,9.7,94.7-41,85-35-6.7-25.3-62.6-25.3-100.6v-377.9c0-43.2,3.7-77.5-32.8-92.4-35.8-14.9-73.1,3.7-82.7,32.1-6,17.1-2.2,340.7-2.2,374.2s8.2,99.9-12.7,116.3c-16.4,12.7-36.5,6.7-46.2-6-10.4-14.2-6.7-37.3-6.7-55.2,0-167.7-.7-335.4,0-503.2,0-42.5-11.9-71.6-54.4-73.8s-64.1,20.1-64.9,61.1c-.7,84.2,1.5,169.2,1.5,253.4v253.4c.7,80.5-50.7,52.9-58.9,42.5-11.9-15.7-6.7-93.2-6.7-119.3,0-84.2-.7-168.5-.7-252.7s6.7-79.8-28.3-98.4c-23.9-12.7-70.8-11.2-85.7,28.3-6,16.4-6.7,454.7-3.7,500.2h0Z"/>
                    </g>
                </g>
            </g>
        </g>
        <g id="bottom">
            <polygon class="cls-6"
                     points="100 1272.9 100 1572.9 1500 1572.9 1500 1272.9 1450 1272.9 1450 1522.9 150 1522.9 150 1272.9 100 1272.9"/>
        </g>
    </g>
</svg>