<?xml version="1.0" encoding="UTF-8"?>
<!DOCTYPE svg PUBLIC "-//W3C//DTD SVG 1.1//EN" "http://www.w3.org/Graphics/SVG/1.1/DTD/svg11.dtd">
<svg xmlns="http://www.w3.org/2000/svg" xml:space="preserve" width="50px" height="50px"
    version="1.1"
    style="shape-rendering:geometricPrecision; text-rendering:geometricPrecision; image-rendering:optimizeQuality; fill-rule:evenodd; clip-rule:evenodd"
    viewBox="0 0 1424 1924"
    xmlns:xlink="http://www.w3.org/1999/xlink">
 <style>
        .fil0 {fill:#000;}
        .fil1 {fill:#EECABC;}
    </style>
 <g id="图层_x0020_1">
  <metadata id="CorelCorpID_0Corel-Layer"/>
  <path class="fil0" d="M91 999c-22,-107 105,-167 176,-95 18,20 168,273 192,315 38,66 91,26 90,-11 -2,-32 -117,-186 -120,-221 -4,-61 -3,-649 5,-671 20,-53 83,-55 115,-38 47,25 38,70 38,132 0,113 1,226 1,339 0,35 -7,139 9,160 11,14 80,51 79,-57 0,-113 0,-227 0,-340 0,-113 -3,-227 -2,-340 1,-55 30,-85 87,-82 57,3 73,42 73,99 -1,225 0,450 0,675 0,24 -5,55 9,74 13,17 40,25 62,8 28,-22 17,-115 17,-156 0,-45 -5,-479 3,-502 13,-38 63,-63 111,-43 49,20 44,66 44,124l0 507c0,51 -13,126 34,135 68,13 55,-77 55,-114 1,-112 3,-224 4,-336 0,-39 3,-92 60,-105 53,-13 94,24 99,70l3 678c2,164 5,274 -89,415 -73,110 -167,175 -310,202 -305,58 -518,-63 -660,-329 -38,-71 -70,-160 -94,-245 -13,-46 -23,-85 -41,-128 -11,-29 -46,-95 -50,-120zm494 -802c-67,-35 -174,-15 -218,56 -35,56 -27,96 -27,181 0,138 0,276 0,414 -11,-7 -18,-16 -29,-24 -78,-58 -179,-54 -251,10 -46,41 -60,97 -60,157 0,45 60,153 84,235 64,227 157,462 360,597 176,117 406,126 604,60 33,-11 74,-28 101,-46 124,-80 212,-202 252,-345 10,-34 23,-89 23,-129 0,-95 0,-191 0,-286l-5 -576c-13,-68 -78,-136 -154,-136 -44,0 -56,0 -95,20 0,-41 3,-82 -6,-116 -7,-26 -17,-43 -33,-61 -2,-2 -6,-7 -8,-9 -43,-42 -88,-54 -149,-47 -25,3 -32,10 -53,12 0,-32 -3,-45 -12,-66 -44,-109 -202,-134 -284,-41 -33,37 -40,71 -40,140z"/>
  <path class="fil1" d="M429 987c3,35 118,189 120,221 1,37 -52,77 -90,11 -24,-42 -174,-295 -192,-315 -71,-72 -198,-12 -176,95 4,25 39,91 50,120 18,43 28,82 41,128 24,85 56,174 94,245 142,266 355,387 660,329 143,-27 237,-92 310,-202 94,-141 91,-251 89,-415l-3 -678c-5,-46 -46,-83 -99,-70 -57,13 -60,66 -60,105 -1,112 -3,224 -4,336 0,37 13,127 -55,114 -47,-9 -34,-84 -34,-135l0 -507c0,-58 5,-104 -44,-124 -48,-20 -98,5 -111,43 -8,23 -3,457 -3,502 0,41 11,134 -17,156 -22,17 -49,9 -62,-8 -14,-19 -9,-50 -9,-74 0,-225 -1,-450 0,-675 0,-57 -16,-96 -73,-99 -57,-3 -86,27 -87,82 -1,113 2,227 2,340 0,113 0,227 0,340 1,108 -68,71 -79,57 -16,-21 -9,-125 -9,-160 0,-113 -1,-226 -1,-339 0,-62 9,-107 -38,-132 -32,-17 -95,-15 -115,38 -8,22 -9,610 -5,671z"/>
 </g>
</svg>