<?xml version="1.0" standalone="no"?>
<!DOCTYPE svg PUBLIC "-//W3C//DTD SVG 1.1//EN" "http://www.w3.org/Graphics/SVG/1.1/DTD/svg11.dtd">
<svg t="1718988652332" class="icon" viewBox="0 0 1024 1024" version="1.1"
    xmlns="http://www.w3.org/2000/svg" xmlns:xlink="http://www.w3.org/1999/xlink" width="200"
    height="200">
    <path
        d="M360.448 596.48V232.448c0-25.088 9.216-41.472 26.112-48.64 28.672-11.264 55.808 9.216 55.808 43.52 0.512 47.104 0 94.208 0 141.824v74.24c0 10.752 1.024 22.016 14.336 22.016 12.8 0 14.336-10.24 14.336-21.504V173.056c0-26.112 10.752-44.032 29.184-50.176 23.552-7.68 47.616 8.192 52.224 35.328 0.512 6.144 0.512 12.8 0.512 18.432v266.24c0 11.264 1.024 23.552 14.848 23.552s13.824-12.8 13.824-23.552V205.824c0-10.24 1.024-20.992 4.608-29.696 6.656-16.896 24.064-26.112 40.448-24.064s31.744 16.896 34.816 35.328c1.024 6.144 1.024 11.776 1.024 18.432V465.92c0 6.144-1.024 13.312 1.024 17.92 2.56 5.632 9.216 11.776 13.312 11.776s10.24-7.168 13.312-12.8c2.56-3.584 0.512-10.24 0.512-14.848v-168.96c0-35.84 16.384-57.856 41.984-57.344s40.448 22.016 40.448 57.344v381.44c0 33.28-3.584 66.56-14.848 97.792-20.992 56.32-58.368 93.696-111.616 111.104-60.928 19.968-121.856 16.896-182.272-3.072-49.664-16.384-88.576-49.664-116.736-96.768-41.984-69.12-84.48-138.752-125.952-207.872-4.608-8.192-9.728-17.92-11.264-28.16-4.608-25.6 6.144-49.152 25.6-59.392 20.48-10.24 47.104-3.584 61.952 17.408 19.968 28.16 38.912 56.832 57.856 84.992 0.512 0.512 4.608 0 4.608 0z"
        fill="none" stroke="#2c2c2c" stroke-dasharray="5,5" stroke-width="2"></path>
</svg>  